<mxfile host="app.diagrams.net" modified="2020-12-12T20:03:35.277Z" agent="5.0 (Windows)" etag="FP3Sg-0OalRmhl1UPd8D" version="14.0.1" type="github">
  <diagram id="4pYha-k8S1XVQ5vFVGsV" name="Page-1">
    <mxGraphModel dx="782" dy="398" grid="1" gridSize="10" guides="1" tooltips="1" connect="1" arrows="1" fold="1" page="1" pageScale="1" pageWidth="850" pageHeight="1100" math="0" shadow="0">
      <root>
        <mxCell id="0" />
        <mxCell id="1" parent="0" />
        <mxCell id="9VIxt5FOkVmZYWYPC6V8-1" value="" style="ellipse;html=1;shape=startState;fillColor=#000000;strokeColor=#ff0000;" vertex="1" parent="1">
          <mxGeometry x="145" y="60" width="30" height="30" as="geometry" />
        </mxCell>
        <mxCell id="9VIxt5FOkVmZYWYPC6V8-2" value="" style="edgeStyle=orthogonalEdgeStyle;html=1;verticalAlign=bottom;endArrow=open;endSize=8;strokeColor=#ff0000;" edge="1" parent="1" source="9VIxt5FOkVmZYWYPC6V8-1">
          <mxGeometry relative="1" as="geometry">
            <mxPoint x="160" y="150" as="targetPoint" />
          </mxGeometry>
        </mxCell>
        <mxCell id="9VIxt5FOkVmZYWYPC6V8-3" value="" style="edgeStyle=orthogonalEdgeStyle;rounded=0;orthogonalLoop=1;jettySize=auto;html=1;" edge="1" parent="1" source="9VIxt5FOkVmZYWYPC6V8-4" target="9VIxt5FOkVmZYWYPC6V8-6">
          <mxGeometry relative="1" as="geometry" />
        </mxCell>
        <mxCell id="9VIxt5FOkVmZYWYPC6V8-4" value="&lt;div&gt;انتخاب دکمه ی &lt;br&gt;&lt;/div&gt;&lt;div&gt;Activities &lt;br&gt;&lt;/div&gt;" style="rounded=1;whiteSpace=wrap;html=1;" vertex="1" parent="1">
          <mxGeometry x="100" y="160" width="120" height="60" as="geometry" />
        </mxCell>
        <mxCell id="9VIxt5FOkVmZYWYPC6V8-5" style="edgeStyle=orthogonalEdgeStyle;rounded=0;orthogonalLoop=1;jettySize=auto;html=1;entryX=0.5;entryY=0;entryDx=0;entryDy=0;" edge="1" parent="1" source="9VIxt5FOkVmZYWYPC6V8-6" target="9VIxt5FOkVmZYWYPC6V8-7">
          <mxGeometry relative="1" as="geometry" />
        </mxCell>
        <mxCell id="9VIxt5FOkVmZYWYPC6V8-6" value="نمایش لیست دوره های ورزشی فعلی و قبلی" style="rounded=1;whiteSpace=wrap;html=1;" vertex="1" parent="1">
          <mxGeometry x="100" y="300" width="120" height="60" as="geometry" />
        </mxCell>
        <mxCell id="9VIxt5FOkVmZYWYPC6V8-7" value="" style="ellipse;html=1;shape=endState;fillColor=#000000;strokeColor=#ff0000;" vertex="1" parent="1">
          <mxGeometry x="145" y="440" width="30" height="30" as="geometry" />
        </mxCell>
        <mxCell id="9VIxt5FOkVmZYWYPC6V8-8" value="&lt;b&gt;Activities activity diagram&lt;/b&gt;" style="text;html=1;strokeColor=none;fillColor=none;align=center;verticalAlign=middle;whiteSpace=wrap;rounded=0;" vertex="1" parent="1">
          <mxGeometry x="375" y="70" width="130" height="10" as="geometry" />
        </mxCell>
      </root>
    </mxGraphModel>
  </diagram>
</mxfile>
